PathFileType  4	(X/Y/Z) /root/TVB/SAM4Dcap/opencap/output/Data/subject2_Session0/MarkerData/mmpose_0.8/2-cameras/PreAugmentation
DataRate	CameraRate	NumFrames	NumMarkers	Units	OrigDataRate	OrigDataStartFrame	OrigNumFrames
60.0	60.0	9	20	m	60.0	115	152
Frame#	Time	Neck			RShoulder			RElbow			RWrist			LShoulder			LElbow			LWrist			midHip			RHip			RKnee			RAnkle			LHip			LKnee			LAnkle			LBigToe			LSmallToe			LHeel			RBigToe			RSmallToe			RHeel			
		X1	Y1	Z1	X2	Y2	Z2	X3	Y3	Z3	X4	Y4	Z4	X5	Y5	Z5	X6	Y6	Z6	X7	Y7	Z7	X8	Y8	Z8	X9	Y9	Z9	X10	Y10	Z10	X11	Y11	Z11	X12	Y12	Z12	X13	Y13	Z13	X14	Y14	Z14	X15	Y15	Z15	X16	Y16	Z16	X17	Y17	Z17	X18	Y18	Z18	X19	Y19	Z19	X20	Y20	Z20	

115	1.9000000	0.9855000	1.0810900	-0.6087500	0.9981900	1.0773500	-0.4365600	0.9442800	0.7786500	-0.3478800	0.9876300	0.4826700	-0.2691300	0.9821000	1.0842500	-0.7805200	0.9376000	0.7808700	-0.8408900	0.9918800	0.4974300	-0.9074600	1.0110300	0.5556900	-0.5965700	1.0190200	0.5573300	-0.4721900	0.9658900	0.0815100	-0.4468200	0.9033600	-0.4255900	-0.3888600	1.0084500	0.5549900	-0.7209900	0.9544400	0.0679500	-0.7707600	0.9033700	-0.4141900	-0.8171000	1.0634400	-0.4778200	-0.8644300	1.0567400	-0.4750300	-0.8633900	0.8809600	-0.4543300	-0.8009400	1.0844200	-0.4728500	-0.3688200	1.0776100	-0.4717800	-0.3688500	0.8670300	-0.4710700	-0.3949900
116	1.9166667	0.9856000	1.0827400	-0.6083200	0.9983500	1.0791800	-0.4367800	0.9460700	0.7767800	-0.3476800	0.9876500	0.4829500	-0.2685600	0.9821000	1.0857600	-0.7794300	0.9382100	0.7821600	-0.8400300	0.9966600	0.4948400	-0.9078700	1.0108600	0.5539500	-0.5963800	1.0184400	0.5549800	-0.4726000	0.9648100	0.0795600	-0.4459300	0.9032000	-0.4223900	-0.3872000	1.0088000	0.5538800	-0.7200200	0.9551300	0.0690400	-0.7694900	0.9031900	-0.4155200	-0.8176400	1.0601700	-0.4798800	-0.8690900	1.0533300	-0.4769300	-0.8678300	0.8802000	-0.4568900	-0.8010600	1.0820100	-0.4727600	-0.3697700	1.0751400	-0.4717700	-0.3697900	0.8669600	-0.4692800	-0.3932900
117	1.9333333	0.9858700	1.0819000	-0.6086200	0.9972900	1.0789600	-0.4368000	0.9439200	0.7763900	-0.3480800	0.9874200	0.4814800	-0.2673400	0.9835200	1.0843600	-0.7800700	0.9446400	0.7790700	-0.8420000	1.0013900	0.4973900	-0.9090100	1.0112100	0.5494600	-0.5973600	1.0181000	0.5508800	-0.4720500	0.9649600	0.0761200	-0.4455600	0.9020200	-0.4239100	-0.3905900	1.0099000	0.5492500	-0.7225700	0.9520600	0.0638700	-0.7688200	0.9021400	-0.4169000	-0.8178900	1.0762000	-0.4758900	-0.8573200	1.0706200	-0.4736200	-0.8562000	0.8778400	-0.4584500	-0.8013600	1.0794300	-0.4759000	-0.3653800	1.0723600	-0.4747400	-0.3656100	0.8675000	-0.4703200	-0.3987400
118	1.9500000	0.9862400	1.0819600	-0.6084100	0.9974500	1.0793500	-0.4364100	0.9447000	0.7785200	-0.3483300	0.9869500	0.4825500	-0.2684600	0.9844200	1.0840700	-0.7799300	0.9429100	0.7787100	-0.8415500	0.9984700	0.4982800	-0.9101200	1.0135600	0.5497000	-0.5971600	1.0192500	0.5511700	-0.4722100	0.9636600	0.0769200	-0.4446700	0.9033100	-0.4224700	-0.3891100	1.0132200	0.5497200	-0.7219500	0.9530200	0.0658400	-0.7680800	0.9022300	-0.4172300	-0.8180300	1.0814900	-0.4741200	-0.8529000	1.0765900	-0.4715400	-0.8513200	0.8753400	-0.4600300	-0.8039900	1.0811100	-0.4733700	-0.3661300	1.0744600	-0.4722000	-0.3662500	0.8675200	-0.4688700	-0.3964500
119	1.9666667	0.9842600	1.0826400	-0.6081000	0.9978300	1.0788200	-0.4365400	0.9461700	0.7761800	-0.3478400	0.9874800	0.4812600	-0.2684600	0.9797900	1.0860500	-0.7795300	0.9341100	0.7808300	-0.8397300	0.9927400	0.4963500	-0.9078000	1.0093200	0.5493900	-0.5979800	1.0181600	0.5505300	-0.4741300	0.9647500	0.0787200	-0.4457200	0.9025500	-0.4255800	-0.3888300	1.0060900	0.5488800	-0.7216300	0.9533800	0.0674900	-0.7698200	0.9027400	-0.4158500	-0.8197100	1.0691400	-0.4781600	-0.8620800	1.0619900	-0.4757000	-0.8615600	0.8781900	-0.4576100	-0.8043500	1.0844600	-0.4734100	-0.3684600	1.0778800	-0.4724700	-0.3685800	0.8660000	-0.4724900	-0.3953300
120	1.9833333	0.9859700	1.0816200	-0.6085600	0.9968700	1.0784500	-0.4369400	0.9455700	0.7768500	-0.3482000	0.9868400	0.4815300	-0.2687000	0.9843000	1.0842800	-0.7797800	0.9412800	0.7790200	-0.8413800	1.0019200	0.4956400	-0.9095300	1.0119300	0.5467800	-0.5966000	1.0181800	0.5480800	-0.4719100	0.9648400	0.0775800	-0.4459400	0.9041100	-0.4238400	-0.3898900	1.0112500	0.5467200	-0.7210400	0.9509700	0.0645000	-0.7680900	0.9004900	-0.4159000	-0.8177700	1.0693900	-0.4795600	-0.8633000	1.0626200	-0.4770200	-0.8627000	0.8752700	-0.4566300	-0.8019800	1.0841900	-0.4749400	-0.3678000	1.0775600	-0.4739600	-0.3680900	0.8662400	-0.4724900	-0.3967300
121	2.0000000	0.9846700	1.0823300	-0.6080400	0.9981700	1.0786900	-0.4374700	0.9469800	0.7788200	-0.3493900	0.9880100	0.4815800	-0.2701900	0.9799800	1.0855600	-0.7782000	0.9357200	0.7797200	-0.8400800	0.9952800	0.4968900	-0.9085100	1.0113600	0.5509400	-0.5983000	1.0218000	0.5521200	-0.4750400	0.9693100	0.0810600	-0.4491300	0.9052700	-0.4226200	-0.3898400	1.0060600	0.5511900	-0.7216500	0.9503300	0.0684800	-0.7704900	0.9020800	-0.4134500	-0.8180200	1.0597200	-0.4802400	-0.8686600	1.0526400	-0.4774800	-0.8676300	0.8802000	-0.4540600	-0.8015100	1.0832600	-0.4721600	-0.3671600	1.0760100	-0.4713900	-0.3671000	0.8679300	-0.4712000	-0.3970100
122	2.0166667	0.9863600	1.0813000	-0.6083600	0.9974800	1.0781600	-0.4358500	0.9449400	0.7770200	-0.3487800	0.9864000	0.4815600	-0.2689300	0.9846600	1.0838700	-0.7802900	0.9460800	0.7812800	-0.8416400	1.0029900	0.4955300	-0.9089100	1.0117800	0.5487100	-0.5972900	1.0179500	0.5494200	-0.4721100	0.9632600	0.0758300	-0.4448200	0.9034700	-0.4236200	-0.3897100	1.0112000	0.5488300	-0.7223100	0.9535100	0.0651400	-0.7689900	0.9030200	-0.4141700	-0.8178200	1.0578900	-0.4815800	-0.8690700	1.0515000	-0.4786100	-0.8678600	0.8790100	-0.4556000	-0.8019200	1.0834500	-0.4750000	-0.3671800	1.0763900	-0.4740000	-0.3673200	0.8670000	-0.4707100	-0.3955700
123	2.0333333	0.9857500	1.0821200	-0.6082500	0.9987000	1.0787000	-0.4360300	0.9465900	0.7782100	-0.3486900	0.9882000	0.4814500	-0.2681600	0.9819300	1.0850600	-0.7800300	0.9366800	0.7810500	-0.8405700	0.9938900	0.4937400	-0.9089800	1.0121600	0.5482100	-0.5996500	1.0202200	0.5493200	-0.4748200	0.9654900	0.0783800	-0.4471500	0.9044100	-0.4210300	-0.3888300	1.0096200	0.5482300	-0.7244300	0.9547300	0.0669400	-0.7710100	0.9023800	-0.4163300	-0.8191800	1.0815200	-0.4750600	-0.8559600	1.0640300	-0.4745900	-0.8611200	0.8786900	-0.4585500	-0.8038200	1.0811600	-0.4732700	-0.3675000	1.0743900	-0.4722000	-0.3675500	0.8687800	-0.4675000	-0.3954300
